# xmcd CD database file
#
# Track frame offsets:
#	225
#	24348
#	42993
#	55228
#	65042
#	83808
#	102670
#	124504
#	134192
#	148619
#	162277
#	179037
#	203279
#	222371
#
# Disc length: 3250 seconds
#
# Revision: 0
# Processed by: cddbd v1.5.1PL0 Copyright (c) Steve Scherf et al.
# Submitted via: CDex 1.51
#
DISCID=d40caf0e
DTITLE=Gramine - Gramine
DYEAR=1900
DGENRE=Blues
TTITLE0=Blues o Warszawskiej Syrenie
TTITLE1=Zywiol ognia
TTITLE2=Zywiol powietrza
TTITLE3=Zywiol wody
TTITLE4=Zywiol ziemi
TTITLE5=Osiem koni albo czterdziestu ludzi
TTITLE6=Hajda Troja blues
TTITLE7=Blues o ciszy
TTITLE8=Jalowcowy blues
TTITLE9=Weekend w dolinie Jozafata
TTITLE10=Samochodowy psalm
TTITLE11=Zloto stu slonc
TTITLE12=Zaglowce w Zatoce Syjamskiej 
TTITLE13=Szara smuga cienia
EXTD=
EXTT0=
EXTT1=
EXTT2=
EXTT3=
EXTT4=
EXTT5=
EXTT6=
EXTT7=
EXTT8=
EXTT9=
EXTT10=
EXTT11=
EXTT12=
EXTT13=
PLAYORDER=
